<?xml version="1.0" standalone="no"?><!DOCTYPE svg PUBLIC "-//W3C//DTD SVG 1.1//EN" "http://www.w3.org/Graphics/SVG/1.1/DTD/svg11.dtd"><svg t="1535624815280" class="icon" style="" viewBox="0 0 1024 1024" version="1.1" xmlns="http://www.w3.org/2000/svg" p-id="1893" xmlns:xlink="http://www.w3.org/1999/xlink" width="16" height="16"><defs><style type="text/css"></style></defs><path d="M1024 953.6L953.6 1024l-217.6-217.6 70.4-70.4 217.6 217.6z m-614.4-236.8c-166.4 0-307.2-140.8-307.2-307.2 0-166.4 140.8-307.2 307.2-307.2 166.4 0 307.2 140.8 307.2 307.2 0 166.4-140.8 307.2-307.2 307.2zM409.6 0C185.6 0 0 185.6 0 409.6s185.6 409.6 409.6 409.6c224 0 409.6-185.6 409.6-409.6S633.6 0 409.6 0z" fill="#ffffff" p-id="1894"></path></svg>