<?xml version="1.0" standalone="no"?><!DOCTYPE svg PUBLIC "-//W3C//DTD SVG 1.1//EN" "http://www.w3.org/Graphics/SVG/1.1/DTD/svg11.dtd"><svg t="1538736487351" class="icon" style="" viewBox="0 0 1024 1024" version="1.1" xmlns="http://www.w3.org/2000/svg" p-id="3465" xmlns:xlink="http://www.w3.org/1999/xlink" width="32" height="32"><defs><style type="text/css"></style></defs><path d="M880.845473 356.679668V833.916713c0 25.647304-20.791015 46.437295-46.437295 46.437295H188.763498c-25.647304 0-46.437295-20.791015-46.437295-46.437295V188.273057c0-25.647304 20.791015-46.437295 46.437295-46.437295h477.237046a23.218648 23.218648 0 0 0 16.418001-6.800646c14.627226-14.627226 4.267554-39.636649-16.418001-39.636649H188.763498c-51.293583 0-92.875614 41.582031-92.875613 92.875614V833.916713c0 51.293583 41.582031 92.875614 92.875613 92.875614H834.408178c51.293583 0 92.875614-41.582031 92.875614-92.875614V356.679668c0-20.685555-25.010447-31.045227-39.636648-16.418001a23.215576 23.215576 0 0 0-6.801671 16.418001z" fill="#427fb2" p-id="3466"></path><path d="M542.257859 541.989601l-61.568272-61.568272L852.963028 108.148911c17.001616-17.001616 44.566657-17.001616 61.568272 0 17.001616 17.001616 17.001616 44.566657 0 61.568273L542.257859 541.989601zM532.03334 552.524357h-50.823619c-6.105428 0-11.05489-4.949462-11.05489-11.05489v-50.823619l61.878509 61.878509z" fill="#427fb2" p-id="3467"></path></svg>