<?xml version="1.0" standalone="no"?><!DOCTYPE svg PUBLIC "-//W3C//DTD SVG 1.1//EN" "http://www.w3.org/Graphics/SVG/1.1/DTD/svg11.dtd"><svg t="1538806922710" class="icon" style="" viewBox="0 0 1024 1024" version="1.1" xmlns="http://www.w3.org/2000/svg" p-id="4120" xmlns:xlink="http://www.w3.org/1999/xlink" width="32" height="32"><defs><style type="text/css"></style></defs><path d="M512 1023.976852C229.669696 1023.976852 0 794.307157 0 512S229.669696 0.023148 512 0.023148s512 229.669696 512 511.976852S794.284009 1023.976852 512 1023.976852zM512 34.744428C248.835842 34.744428 34.72128 248.835842 34.72128 512c0 263.14101 214.114562 477.255572 477.27872 477.255572s477.27872-214.114562 477.27872-477.255572C989.27872 248.835842 775.164158 34.744428 512 34.744428z" p-id="4121" fill="#bfbfbf"></path><path d="M570.979882 691.740495c-4.444324 0-8.888648-1.666621-12.268186-5.092454l-169.625028-169.763913c-6.759076-6.782223-6.759076-17.777296 0-24.559519l169.625028-169.740766c6.782223-6.782223 17.777296-6.782223 24.559519 0s6.782223 17.777296 0 24.559519L425.914372 504.615941l157.356843 157.518875c6.759076 6.782223 6.759076 17.800443 0 24.559519C579.868529 690.073873 575.424205 691.740495 570.979882 691.740495z" p-id="4122" fill="#bfbfbf"></path></svg>